<svg width="144" height="97" viewBox="0 0 144 97" fill="none" xmlns="http://www.w3.org/2000/svg">
<g clip-path="url(#clip0_266_177)">
<path d="M96 96.5C122.6 96.5 144 75.1002 144 48.5C144 21.8998 122.6 0.5 96 0.5C69.3998 0.5 48 21.8998 48 48.5C48 75.1002 69.3998 96.5 96 96.5Z" fill="#2775CA"/>
<path d="M109.2 56.0995C109.2 49.0996 105 46.6996 96.6002 45.6998C90.6002 44.8996 89.4002 43.2998 89.4002 40.4995C89.4002 37.6991 91.4004 35.8996 95.4002 35.8996C99.0002 35.8996 101 37.0996 102 40.0996C102.2 40.6996 102.8 41.0995 103.4 41.0995H106.6C107.4 41.0995 108 40.4995 108 39.6998V39.4996C107.2 35.0994 103.6 31.6996 99.0002 31.2998V26.4997C99.0002 25.6996 98.4002 25.0996 97.4004 24.8994H94.4004C93.6002 24.8994 93.0002 25.4994 92.8001 26.4997V31.0996C86.8001 31.8998 83.0004 35.8996 83.0004 40.8998C83.0004 47.4998 87.0002 50.0995 95.4002 51.0998C101 52.0996 102.8 53.2997 102.8 56.4998C102.8 59.7 100 61.8998 96.2004 61.8998C91.0001 61.8998 89.2001 59.6995 88.6001 56.6995C88.4004 55.8998 87.8004 55.4995 87.2004 55.4995H83.8001C83.0004 55.4995 82.4004 56.0995 82.4004 56.8997V57.0998C83.2001 62.0995 86.4002 65.6995 93.0002 66.6998V71.4999C93.0002 72.2995 93.6002 72.8995 94.6001 73.0997H97.6001C98.4002 73.0997 99.0002 72.4997 99.2004 71.4999V66.6998C105.2 65.6995 109.2 61.4995 109.2 56.0995V56.0995Z" fill="white"/>
<path d="M85.8001 77.1C70.2 71.5003 62.1998 54.1002 68.0002 38.6998C71.0002 30.2998 77.6002 23.8999 85.8001 20.8999C86.6002 20.5 87.0001 19.9 87.0001 18.8997V16.0998C87.0001 15.2997 86.6002 14.6997 85.8001 14.5C85.5999 14.5 85.2001 14.5 84.9999 14.6997C66 20.6997 55.5998 40.9001 61.5998 59.9001C65.1998 71.1 73.8 79.7002 84.9999 83.3002C85.8001 83.7001 86.6002 83.3002 86.7999 82.5C87.0001 82.3004 87.0001 82.1002 87.0001 81.7004V78.9C87.0001 78.3 86.4001 77.5003 85.8001 77.1ZM107 14.6997C106.2 14.2998 105.4 14.6997 105.2 15.4998C105 15.7 105 15.8997 105 16.3V19.0999C105 19.9 105.6 20.6997 106.2 21.1C121.8 26.6997 129.8 44.0998 124 59.5002C121 67.9003 114.4 74.3002 106.2 77.3002C105.4 77.7 105 78.3 105 79.3004V82.1002C105 82.9004 105.4 83.5004 106.2 83.7001C106.4 83.7001 106.8 83.7001 107 83.5004C126 77.5003 136.4 57.2999 130.4 38.3C126.8 26.8999 118 18.2997 107 14.6997V14.6997Z" fill="white"/>
</g>
<g clip-path="url(#clip1_266_177)">
<path d="M94.559 60.1109C88.1482 85.8255 62.1036 101.475 36.386 95.0625C10.6792 88.6517 -4.97017 62.6054 1.44339 36.893C7.85132 11.1756 33.896 -4.47491 59.6056 1.93584C85.3213 8.34658 100.97 34.3957 94.5583 60.1114L94.5587 60.1109H94.559Z" fill="#F7931A"/>
<path d="M69.1661 41.6608C70.1215 35.2731 65.2583 31.8394 58.6082 29.5488L60.7655 20.8961L55.4983 19.5836L53.3983 28.0086C52.0135 27.6632 50.5915 27.3378 49.1782 27.0152L51.2935 18.5346L46.0296 17.2222L43.8711 25.8721C42.7252 25.6112 41.5997 25.3534 40.5078 25.0817L40.5139 25.0545L33.2503 23.2406L31.8492 28.8663C31.8492 28.8663 35.757 29.7621 35.6746 29.8173C37.8076 30.3496 38.1933 31.7615 38.1292 32.8807L35.6718 42.7382C35.8187 42.7755 36.0092 42.8295 36.2194 42.914C36.0437 42.8703 35.8567 42.8227 35.6627 42.7762L32.2182 56.5852C31.9576 57.2333 31.2959 58.2058 29.8047 57.8365C29.8575 57.9129 25.9764 56.8811 25.9764 56.8811L23.3613 62.9103L30.2157 64.6191C31.4909 64.9389 32.7405 65.2734 33.9711 65.5881L31.7914 74.3401L37.0526 75.6525L39.2111 66.9934C40.6483 67.3836 42.0431 67.7435 43.4086 68.0828L41.2574 76.701L46.5248 78.0135L48.7042 69.2779C57.6859 70.9777 64.4395 70.2924 67.2821 62.1685C69.5727 55.6278 67.1681 51.8551 62.4428 49.3948C65.8845 48.6011 68.4768 46.3375 69.168 41.6616L69.1663 41.6604L69.1661 41.6608ZM57.1318 58.5361C55.504 65.0768 44.4914 61.5411 40.921 60.6545L43.8133 49.0596C47.3836 49.9509 58.833 51.7148 57.132 58.5361H57.1318ZM58.7607 41.5661C57.2758 47.5155 48.1099 44.4929 45.1366 43.7518L47.7589 33.2359C50.7323 33.9771 60.3076 35.3604 58.7612 41.5661H58.7607Z" fill="white"/>
</g>
<defs>
<clipPath id="clip0_266_177">
<rect width="96" height="96" fill="white" transform="translate(48 0.5)"/>
</clipPath>
<clipPath id="clip1_266_177">
<rect width="96" height="96" fill="white" transform="translate(0 0.5)"/>
</clipPath>
</defs>
</svg>
