<svg width="88" height="88" viewBox="0 0 88 88" fill="none" xmlns="http://www.w3.org/2000/svg">
<g clip-path="url(#clip0_63_83)">
<path d="M86.6786 54.6438C80.8021 78.2155 56.9278 92.5607 33.3533 86.6827C9.78877 80.8062 -4.55648 56.9304 1.32262 33.3607C7.19655 9.78644 31.0708 -4.55989 54.638 1.31663C78.2107 7.19315 92.5551 31.0715 86.6779 54.6442L86.6784 54.6438H86.6786Z" fill="#F7931A"/>
<path d="M63.402 37.7312C64.2778 31.8758 59.8198 28.7283 53.724 26.6286L55.7015 18.6969L50.8732 17.4938L48.9482 25.2166C47.6788 24.9001 46.3753 24.6018 45.0797 24.306L47.0188 16.5322L42.1935 15.3291L40.2149 23.2582C39.1645 23.0191 38.1328 22.7827 37.1319 22.5337L37.1375 22.5087L30.4792 20.846L29.1948 26.0029C29.1948 26.0029 32.777 26.8241 32.7015 26.8746C34.6567 27.3626 35.0103 28.6569 34.9515 29.6827L32.6989 38.7188C32.8336 38.753 33.0082 38.8025 33.2009 38.8799C33.0398 38.8399 32.8684 38.7962 32.6905 38.7537L29.5331 51.4119C29.2942 52.0059 28.6877 52.8974 27.3207 52.5589C27.3691 52.629 23.8115 51.6831 23.8115 51.6831L21.4143 57.2099L27.6975 58.7763C28.8664 59.0694 30.0119 59.3761 31.1399 59.6645L29.1419 67.6872L33.9646 68.8903L35.9432 60.9528C37.2607 61.3104 38.5393 61.6403 39.791 61.9513L37.819 69.8514L42.6475 71.0545L44.6453 63.0469C52.8785 64.605 59.0693 63.9768 61.675 56.5299C63.7747 50.5342 61.5705 47.0759 57.239 44.8207C60.3939 44.0932 62.7701 42.0182 63.4037 37.7319L63.4022 37.7308L63.402 37.7312ZM52.3705 53.2002C50.8784 59.1959 40.7835 55.9548 37.5106 55.1421L40.162 44.5134C43.4347 45.3304 53.93 46.9473 52.3708 53.2002H52.3705ZM53.8638 37.6443C52.5026 43.098 44.1005 40.3273 41.375 39.6479L43.7788 30.0084C46.5043 30.6878 55.2817 31.9558 53.8642 37.6443H53.8638Z" fill="white"/>
</g>
<defs>
<clipPath id="clip0_63_83">
<rect width="88" height="88" fill="white"/>
</clipPath>
</defs>
</svg>
