<svg width="56" height="56" viewBox="0 0 56 56" fill="none" xmlns="http://www.w3.org/2000/svg">
<g filter="url(#filter0_d_390_494)">
<path d="M39.6408 29.903C38.0379 36.3316 31.5261 40.2439 25.096 38.6408C18.6686 37.0381 14.7558 30.5266 16.3595 24.0984C17.9616 17.6691 24.4734 13.7564 30.9016 15.3591C37.3313 16.9618 41.2437 23.474 39.6408 29.903Z" fill="black"/>
<path d="M33.2958 25.2841C33.5347 23.6873 32.3189 22.829 30.6563 22.2563L31.1956 20.0934L29.8788 19.7652L29.3538 21.8712C29.0076 21.785 28.6521 21.7036 28.2988 21.623L28.8276 19.5031L27.5116 19.175L26.9719 21.3372C26.6854 21.272 26.4041 21.2075 26.1311 21.1396L26.1326 21.1329L24.3166 20.6795L23.9663 22.0857C23.9663 22.0857 24.9433 22.3096 24.9227 22.3235C25.456 22.4566 25.5524 22.8095 25.5363 23.0892L24.9219 25.5533C24.9587 25.5627 25.0063 25.5762 25.0588 25.5972C25.0149 25.5863 24.9681 25.5743 24.9197 25.5627L24.0586 29.0145C23.9933 29.1765 23.8279 29.4195 23.4552 29.3273C23.4683 29.3464 22.4981 29.0884 22.4981 29.0884L21.8444 30.5955L23.5579 31.0227C23.8767 31.1025 24.1891 31.1862 24.4966 31.2649L23.9517 33.4526L25.267 33.7808L25.8067 31.6163C26.1659 31.7138 26.5147 31.8038 26.856 31.8885L26.3182 34.0429L27.635 34.371L28.1799 32.1874C30.4253 32.6123 32.1137 32.4409 32.8244 30.4103C33.3971 28.7753 32.7959 27.8322 31.6145 27.2172C32.4749 27.0188 33.1229 26.4529 33.2958 25.2841ZM30.2873 29.5024C29.8803 31.1374 27.1272 30.2535 26.2346 30.0319L26.9577 27.1336C27.8503 27.3563 30.7126 27.7973 30.2873 29.5024ZM30.6946 25.2604C30.3233 26.7477 28.0318 25.9921 27.2884 25.8068L27.944 23.1781C28.6873 23.3633 31.0812 23.7091 30.6946 25.2604Z" fill="#DC5355"/>
</g>
<defs>
<filter id="filter0_d_390_494" x="0" y="0" width="56" height="56.0001" filterUnits="userSpaceOnUse" color-interpolation-filters="sRGB">
<feFlood flood-opacity="0" result="BackgroundImageFix"/>
<feColorMatrix in="SourceAlpha" type="matrix" values="0 0 0 0 0 0 0 0 0 0 0 0 0 0 0 0 0 0 127 0" result="hardAlpha"/>
<feOffset dy="1"/>
<feGaussianBlur stdDeviation="8"/>
<feColorMatrix type="matrix" values="0 0 0 0 0.862745 0 0 0 0 0.32549 0 0 0 0 0.333333 0 0 0 1 0"/>
<feBlend mode="normal" in2="BackgroundImageFix" result="effect1_dropShadow_390_494"/>
<feBlend mode="normal" in="SourceGraphic" in2="effect1_dropShadow_390_494" result="shape"/>
</filter>
</defs>
</svg>
