<svg width="232" height="232" viewBox="0 0 232 232" fill="none" xmlns="http://www.w3.org/2000/svg">
<g filter="url(#filter0_dd_199_21)">
<circle cx="115.5" cy="114.5" r="72.5" fill="#AF09D9"/>
<path d="M116 15C171.231 15 216 59.7687 216 115C216 170.231 171.231 215 116 215C60.7687 215 16 170.231 16 115C16 59.7687 60.7687 15 116 15ZM170.412 136.981H80.625C79.6543 136.98 78.7223 137.362 78.0312 138.044L60.2938 155.638C60.0363 155.892 59.8605 156.217 59.789 156.572C59.7176 156.927 59.7536 157.295 59.8925 157.629C60.0315 157.964 60.267 158.249 60.5689 158.448C60.8709 158.648 61.2255 158.753 61.5875 158.75H151.375C152.346 158.751 153.278 158.369 153.969 157.688L171.706 140.088C171.962 139.833 172.135 139.508 172.206 139.154C172.276 138.8 172.239 138.434 172.101 138.101C171.962 137.768 171.727 137.484 171.427 137.284C171.126 137.085 170.773 136.979 170.412 136.981ZM151.375 103.906H61.5875L61.1625 103.95C60.8455 104.023 60.5538 104.179 60.3178 104.403C60.0819 104.627 59.9103 104.91 59.8209 105.223C59.7315 105.536 59.7277 105.867 59.8098 106.181C59.8918 106.496 60.0568 106.783 60.2875 107.012L78.0375 124.613L78.475 124.987C79.1 125.425 79.85 125.675 80.625 125.675H170.412L170.837 125.631C171.155 125.558 171.446 125.402 171.682 125.178C171.918 124.954 172.09 124.671 172.179 124.358C172.268 124.046 172.272 123.715 172.19 123.4C172.108 123.085 171.943 122.798 171.712 122.569L153.962 104.969L153.525 104.594C152.898 104.145 152.146 103.905 151.375 103.906ZM170.412 71.25H80.625C79.6543 71.249 78.7223 71.6307 78.0312 72.3125L60.2938 89.9125C60.0384 90.1672 59.8646 90.4921 59.7944 90.8459C59.7242 91.1997 59.7607 91.5664 59.8994 91.8993C60.0381 92.2323 60.2726 92.5165 60.5732 92.7158C60.8738 92.9151 61.2268 93.0206 61.5875 93.0187H151.375C152.346 93.0198 153.278 92.638 153.969 91.9562L171.706 74.3625C171.964 74.1081 172.139 73.7827 172.211 73.4278C172.282 73.073 172.246 72.7049 172.107 72.3706C171.969 72.0364 171.733 71.7512 171.431 71.5515C171.129 71.3519 170.774 71.2469 170.412 71.25Z" fill="black"/>
</g>
<defs>
<filter id="filter0_dd_199_21" x="0" y="0" width="232" height="232" filterUnits="userSpaceOnUse" color-interpolation-filters="sRGB">
<feFlood flood-opacity="0" result="BackgroundImageFix"/>
<feColorMatrix in="SourceAlpha" type="matrix" values="0 0 0 0 0 0 0 0 0 0 0 0 0 0 0 0 0 0 127 0" result="hardAlpha"/>
<feOffset dy="1"/>
<feGaussianBlur stdDeviation="8"/>
<feColorMatrix type="matrix" values="0 0 0 0 0.760784 0 0 0 0 0.0745098 0 0 0 0 0.94902 0 0 0 1 0"/>
<feBlend mode="normal" in2="BackgroundImageFix" result="effect1_dropShadow_199_21"/>
<feColorMatrix in="SourceAlpha" type="matrix" values="0 0 0 0 0 0 0 0 0 0 0 0 0 0 0 0 0 0 127 0" result="hardAlpha"/>
<feOffset dy="4"/>
<feGaussianBlur stdDeviation="2"/>
<feComposite in2="hardAlpha" operator="out"/>
<feColorMatrix type="matrix" values="0 0 0 0 0 0 0 0 0 0 0 0 0 0 0 0 0 0 0.25 0"/>
<feBlend mode="normal" in2="effect1_dropShadow_199_21" result="effect2_dropShadow_199_21"/>
<feBlend mode="normal" in="SourceGraphic" in2="effect2_dropShadow_199_21" result="shape"/>
</filter>
</defs>
</svg>
