<svg width="24" height="24" viewBox="0 0 24 24" fill="none" xmlns="http://www.w3.org/2000/svg">
<g clip-path="url(#clip0_56_71)">
<path d="M20.317 4.36988C18.761 3.65572 17.119 3.14647 15.432 2.85488C15.4166 2.85188 15.4007 2.85385 15.3865 2.8605C15.3723 2.86715 15.3605 2.87814 15.353 2.89188C15.143 3.26688 14.909 3.75588 14.745 4.14188C12.9264 3.86566 11.0766 3.86566 9.25799 4.14188C9.07548 3.71418 8.8695 3.29688 8.64099 2.89188C8.63311 2.87845 8.62134 2.86772 8.60724 2.86111C8.59313 2.85451 8.57736 2.85233 8.56199 2.85488C6.87484 3.14586 5.23272 3.65514 3.67699 4.36988C3.66382 4.3754 3.65265 4.38483 3.64499 4.39688C0.532992 9.04588 -0.320008 13.5799 0.0989923 18.0569C0.10001 18.068 0.103284 18.0788 0.108615 18.0886C0.113945 18.0984 0.121219 18.107 0.129992 18.1139C1.94159 19.4561 3.9681 20.4807 6.12299 21.1439C6.13818 21.1483 6.15435 21.148 6.16935 21.143C6.18435 21.138 6.19748 21.1285 6.20699 21.1159C6.66899 20.4859 7.08099 19.8209 7.43299 19.1219C7.43791 19.1123 7.44075 19.1019 7.44132 19.0911C7.44189 19.0804 7.44018 19.0697 7.43631 19.0597C7.43243 19.0497 7.42648 19.0406 7.41884 19.033C7.4112 19.0255 7.40205 19.0196 7.39199 19.0159C6.74541 18.7685 6.11946 18.4702 5.51999 18.1239C5.509 18.1175 5.49976 18.1086 5.49307 18.0978C5.48639 18.087 5.48248 18.0747 5.48169 18.062C5.48089 18.0494 5.48325 18.0367 5.48853 18.0251C5.49382 18.0136 5.50188 18.0036 5.51199 17.9959C5.63823 17.9014 5.76227 17.8041 5.88399 17.7039C5.89464 17.6952 5.90748 17.6897 5.92108 17.688C5.93467 17.6862 5.94849 17.6883 5.96099 17.6939C9.88899 19.4869 14.141 19.4869 18.023 17.6939C18.0356 17.688 18.0496 17.6859 18.0634 17.6877C18.0772 17.6894 18.0902 17.6951 18.101 17.7039C18.221 17.8019 18.347 17.9019 18.474 17.9959C18.484 18.0034 18.492 18.0133 18.4973 18.0246C18.5026 18.036 18.5051 18.0485 18.5045 18.061C18.5039 18.0735 18.5003 18.0857 18.4939 18.0964C18.4876 18.1072 18.4787 18.1163 18.468 18.1229C17.8699 18.4724 17.2433 18.7708 16.595 19.0149C16.5849 19.0187 16.5757 19.0247 16.5681 19.0323C16.5604 19.04 16.5545 19.0491 16.5506 19.0592C16.5468 19.0693 16.5451 19.0801 16.5456 19.0909C16.5462 19.1017 16.5491 19.1123 16.554 19.1219C16.914 19.8199 17.326 20.4839 17.779 21.1149C17.7883 21.1277 17.8014 21.1374 17.8165 21.1424C17.8316 21.1474 17.8478 21.1476 17.863 21.1429C20.0215 20.4817 22.0513 19.457 23.865 18.1129C23.8738 18.1066 23.8812 18.0986 23.8867 18.0893C23.8923 18.08 23.8958 18.0696 23.897 18.0589C24.397 12.8819 23.059 8.38488 20.348 4.39888C20.3417 4.38544 20.3306 4.37477 20.317 4.36888V4.36988ZM8.01999 15.3299C6.83699 15.3299 5.86299 14.2449 5.86299 12.9109C5.86299 11.5779 6.81899 10.4919 8.01999 10.4919C9.22999 10.4919 10.196 11.5879 10.177 12.9119C10.177 14.2449 9.22099 15.3299 8.01999 15.3299ZM15.995 15.3299C14.812 15.3299 13.838 14.2449 13.838 12.9109C13.838 11.5779 14.793 10.4919 15.995 10.4919C17.205 10.4919 18.171 11.5879 18.152 12.9119C18.152 14.2449 17.206 15.3299 15.995 15.3299Z" fill="white"/>
</g>
<defs>
<clipPath id="clip0_56_71">
<rect width="24" height="24" fill="white"/>
</clipPath>
</defs>
</svg>
