<svg width="24" height="24" viewBox="0 0 24 24" fill="none" xmlns="http://www.w3.org/2000/svg">
<path d="M10.802 17.7703C10.8943 17.7704 10.9857 17.7888 11.0709 17.8242C11.1562 17.8597 11.2336 17.9115 11.2988 17.9769C11.364 18.0423 11.4156 18.1199 11.4509 18.2052C11.4861 18.2905 11.5041 18.382 11.504 18.4743C11.5038 18.5666 11.4855 18.658 11.4501 18.7433C11.4146 18.8285 11.3627 18.9059 11.2974 18.9711C11.232 19.0363 11.1544 19.088 11.0691 19.1232C10.9837 19.1584 10.8923 19.1764 10.8 19.1763C10.6135 19.176 10.4348 19.1017 10.3032 18.9697C10.1715 18.8377 10.0977 18.6588 10.098 18.4723C10.0982 18.2859 10.1726 18.1072 10.3046 17.9755C10.4366 17.8439 10.6155 17.77 10.802 17.7703ZM21.826 13.4233C21.7337 13.4232 21.6423 13.405 21.557 13.3696C21.4717 13.3342 21.3943 13.2824 21.329 13.2171C21.2638 13.1517 21.2121 13.0742 21.1768 12.9889C21.1415 12.9036 21.1234 12.8121 21.1235 12.7198C21.1235 12.6275 21.1418 12.5361 21.1772 12.4508C21.2126 12.3656 21.2644 12.2881 21.3297 12.2229C21.3951 12.1576 21.4726 12.1059 21.5579 12.0706C21.6432 12.0354 21.7347 12.0172 21.827 12.0173C22.0134 12.0174 22.1922 12.0916 22.3239 12.2236C22.4557 12.3555 22.5296 12.5344 22.5295 12.7208C22.5293 12.9073 22.4552 13.086 22.3232 13.2178C22.1913 13.3495 22.0124 13.4234 21.826 13.4233ZM21.826 10.5473C21.2496 10.5478 20.6969 10.7771 20.2893 11.1846C19.8817 11.5922 19.6525 12.1449 19.652 12.7213C19.652 12.9543 19.691 13.1863 19.767 13.4123L12.586 17.2353C12.3869 16.9462 12.1204 16.7098 11.8096 16.5466C11.4989 16.3834 11.153 16.2982 10.802 16.2983C9.97298 16.2983 9.21798 16.7733 8.85198 17.5143L2.40098 14.1123C1.71898 13.7543 1.20898 12.6323 1.26298 11.6103C1.29098 11.0773 1.47498 10.6633 1.75598 10.5033C1.93398 10.4033 2.14798 10.4113 2.37598 10.5303L2.41798 10.5533C4.12798 11.4533 9.72198 14.4003 9.95798 14.5093C10.321 14.6783 10.523 14.7463 11.143 14.4523L22.707 8.43831C22.877 8.37431 23.075 8.21131 23.075 7.96431C23.075 7.62231 22.721 7.48731 22.72 7.48731C22.062 7.17231 21.051 6.69931 20.065 6.23731C17.957 5.25031 15.568 4.13231 14.519 3.58231C13.613 3.10831 12.884 3.50831 12.754 3.58831L12.502 3.71331C7.77998 6.04831 1.45998 9.17831 1.09998 9.39731C0.456982 9.78931 0.0579816 10.5703 0.00598162 11.5393C-0.0740184 13.0763 0.708982 14.6793 1.82998 15.2663L8.65198 18.7843C8.72713 19.3011 8.9857 19.7736 9.38045 20.1154C9.7752 20.4573 10.2798 20.6457 10.802 20.6463C11.3723 20.6453 11.9195 20.4206 12.3258 20.0204C12.7322 19.6202 12.9653 19.0766 12.975 18.5063L20.489 14.4333C20.869 14.7313 21.342 14.8943 21.826 14.8943C22.4024 14.8938 22.9551 14.6646 23.3626 14.257C23.7702 13.8494 23.9995 13.2967 24 12.7203C23.9995 12.1439 23.7702 11.5912 23.3626 11.1836C22.9551 10.7761 22.4024 10.5468 21.826 10.5463" fill="white"/>
</svg>
