<svg width="48" height="62" viewBox="0 0 48 62" fill="none" xmlns="http://www.w3.org/2000/svg">
<path d="M8 46.5H40C41.1 46.5 42 45.3375 42 43.9167C42 42.4958 41.1 41.3333 40 41.3333H8C6.9 41.3333 6 42.4958 6 43.9167C6 45.3375 6.9 46.5 8 46.5ZM8 33.5833H40C41.1 33.5833 42 32.4208 42 31C42 29.5792 41.1 28.4167 40 28.4167H8C6.9 28.4167 6 29.5792 6 31C6 32.4208 6.9 33.5833 8 33.5833ZM6 18.0833C6 19.5042 6.9 20.6667 8 20.6667H40C41.1 20.6667 42 19.5042 42 18.0833C42 16.6625 41.1 15.5 40 15.5H8C6.9 15.5 6 16.6625 6 18.0833Z" fill="white"/>
</svg>
