<svg width="96" height="97" viewBox="0 0 96 97" fill="none" xmlns="http://www.w3.org/2000/svg">
<g clip-path="url(#clip0_266_178)">
<path d="M48 96.5C74.6002 96.5 96 75.1002 96 48.5C96 21.8998 74.6002 0.5 48 0.5C21.3998 0.5 0 21.8998 0 48.5C0 75.1002 21.3998 96.5 48 96.5Z" fill="#2775CA"/>
<path d="M61.2002 56.0995C61.2002 49.0996 57.0002 46.6996 48.6002 45.6998C42.6002 44.8996 41.4002 43.2998 41.4002 40.4995C41.4002 37.6991 43.4004 35.8996 47.4002 35.8996C51.0002 35.8996 53.0004 37.0996 54.0002 40.0996C54.2004 40.6996 54.8004 41.0995 55.4004 41.0995H58.6001C59.4002 41.0995 60.0002 40.4995 60.0002 39.6998V39.4996C59.2001 35.0994 55.6001 31.6996 51.0002 31.2998V26.4997C51.0002 25.6996 50.4002 25.0996 49.4004 24.8994H46.4004C45.6002 24.8994 45.0002 25.4994 44.8001 26.4997V31.0996C38.8001 31.8998 35.0004 35.8996 35.0004 40.8998C35.0004 47.4998 39.0002 50.0995 47.4002 51.0998C53.0004 52.0996 54.8004 53.2997 54.8004 56.4998C54.8004 59.7 52.0001 61.8998 48.2004 61.8998C43.0001 61.8998 41.2001 59.6995 40.6001 56.6995C40.4004 55.8998 39.8004 55.4995 39.2004 55.4995H35.8001C35.0004 55.4995 34.4004 56.0995 34.4004 56.8997V57.0998C35.2001 62.0995 38.4002 65.6995 45.0002 66.6998V71.4999C45.0002 72.2995 45.6002 72.8995 46.6001 73.0997H49.6001C50.4002 73.0997 51.0002 72.4997 51.2004 71.4999V66.6998C57.2004 65.6995 61.2002 61.4995 61.2002 56.0995Z" fill="white"/>
<path d="M37.8001 77.1C22.2 71.5003 14.1998 54.1002 20.0002 38.6998C23.0002 30.2998 29.6002 23.8999 37.8001 20.8999C38.6002 20.5 39.0001 19.9 39.0001 18.8997V16.0998C39.0001 15.2997 38.6002 14.6997 37.8001 14.5C37.5999 14.5 37.2001 14.5 36.9999 14.6997C18 20.6997 7.59982 40.9001 13.5998 59.9001C17.1998 71.1 25.8 79.7002 36.9999 83.3002C37.8001 83.7001 38.6002 83.3002 38.7999 82.5C39.0001 82.3004 39.0001 82.1002 39.0001 81.7004V78.9C39.0001 78.3 38.4001 77.5003 37.8001 77.1ZM59.0003 14.6997C58.2001 14.2998 57.3999 14.6997 57.2003 15.4998C57.0001 15.7 57.0001 15.8997 57.0001 16.3V19.0999C57.0001 19.9 57.6001 20.6997 58.2001 21.1C73.8001 26.6997 81.8003 44.0998 76 59.5002C73 67.9003 66.4 74.3002 58.2001 77.3002C57.3999 77.7 57.0001 78.3 57.0001 79.3004V82.1002C57.0001 82.9004 57.3999 83.5004 58.2001 83.7001C58.4003 83.7001 58.8001 83.7001 59.0003 83.5004C78.0002 77.5003 88.4004 57.2999 82.4003 38.3C78.8003 26.8999 70 18.2997 59.0003 14.6997Z" fill="white"/>
</g>
<defs>
<clipPath id="clip0_266_178">
<rect width="96" height="96" fill="white" transform="translate(0 0.5)"/>
</clipPath>
</defs>
</svg>
