<svg width="16" height="16" viewBox="0 0 16 16" fill="none" xmlns="http://www.w3.org/2000/svg">
<path d="M14 12V12.6667C14 13.4 13.4 14 12.6667 14H3.33333C2.97971 14 2.64057 13.8595 2.39052 13.6095C2.14048 13.3594 2 13.0203 2 12.6667V3.33333C2 2.97971 2.14048 2.64057 2.39052 2.39052C2.64057 2.14048 2.97971 2 3.33333 2H12.6667C13.4 2 14 2.6 14 3.33333V4H8C7.64638 4 7.30724 4.14048 7.05719 4.39052C6.80714 4.64057 6.66667 4.97971 6.66667 5.33333V10.6667C6.66667 11.0203 6.80714 11.3594 7.05719 11.6095C7.30724 11.8595 7.64638 12 8 12H14ZM8 10.6667H14.6667V5.33333H8V10.6667ZM10.6667 9C10.1133 9 9.66667 8.55333 9.66667 8C9.66667 7.44667 10.1133 7 10.6667 7C11.22 7 11.6667 7.44667 11.6667 8C11.6667 8.55333 11.22 9 10.6667 9Z" fill="white"/>
</svg>
